{
  "title": "Zootopia.2016.HDCAM.XVID.AC3.HQ.Hive-CM8",
  "uid": 13782788,
  "size": 1532726725,
  "categoryP": "video",
  "categoryS": "movies",
  "magnet": "?xt=urn:btih:609679de0f6734a8ec59bd59af3862d6aef5d8e3&amp;dn=Zootopia.2016.HDCAM.XVID.AC3.HQ.Hive-CM8&amp;tr=udp%3A%2F%2Ftracker.leechers-paradise.org%3A6969&amp;tr=udp%3A%2F%2Fzer0day.ch%3A1337&amp;tr=udp%3A%2F%2Fopen.demonii.com%3A1337&amp;tr=udp%3A%2F%2Ftracker.coppersurfer.tk%3A6969&amp;tr=udp%3A%2F%2Fexodus.desync.com%3A6969",
  "seeders": 90,
  "leechers": 16,
  "uploader": "SaM",
  "files": 4,
  "time": 1457347923,
  "description": "Zootopia.2016.HDCAM.XVID.AC3.HQ.Hive-CM8\r\n\r\nThx Hive\r\n\r\nCM8 Doing It Right The First Time\r\n\r\nSources:\r\n\r\nVideo: 720P New HDCAM Latino thx\r\n\r\nAudio: Nice Mic from UnKnOwN thx\r\n\r\n\r\nEncode:\r\n\r\nLatino Video was complete and nice, fixed ar,brightness,contrast,rgb,and saturation\r\n\r\nDont have line for this movie, and doesnt look like theire is anyone coming next 3 weeks\r\nNot every movie can be a top 1 candidate,\r\nso i took the mic from the UnKnOwN release and lipsynced it to my video\r\nThe Mic was ok you can understand all thats been said, occassional kids laughing are in it, no biggy its a cam\r\ncheck sample\r\n\r\nmost likely next will be a web-dl in 3 weeks so this will have to do till than.\r\n\r\nand yes last 10mins are perfect to see, its not a redo of the old cam\r\n\r\n\r\nenjoy\r\n\r\nVideo: 720x304 @bitrate 1800 2pass\r\nAudio: Mic AC3 2.0 Stereo\r\nSample: yes included\r\n\r\n\r\n \nhttp://www.imdb.com/title/tt2948356/\r\n\r\n\r\nGeneral\r\nComplete name : Zootopia.2016.HDCAM.XVID.AC3.HQ.Hive-CM8.avi\r\nFormat : AVI\r\nFormat/Info : Audio Video Interleave\r\nFile size : 1.41 GiB\r\nDuration : 1h 38mn\r\nOverall bit rate : 2 063 Kbps\r\nWriting application : Nandub v1.0rc2\r\nWriting library : Nandub build 1853/release\r\n\r\nVideo\r\nID : 0\r\nFormat : MPEG-4 Visual\r\nFormat profile : Advanced   \r\nFormat settings, BVOP : 2\r\nFormat settings, QPel : Yes\r\nFormat settings, GMC : No warppoints\r\nFormat settings, Matrix : Default (H.263)\r\nMuxing mode : Packed bitstream\r\nCodec ID : XVID\r\nCodec ID/Hint : XviD\r\nDuration : 1h 38mn\r\nBit rate : 1 800 Kbps\r\nWidth : 720 pixels\r\nHeight : 304 pixels\r\nDisplay aspect ratio : 2.35:1\r\nFrame rate : 29.970 fps\r\nColor space : YUV\r\nChroma subsampling : 4:2:0\r\nBit depth : 8 bits\r\nScan type : Progressive\r\nCompression mode : Lossy\r\nBits/(Pixel*Frame) : 0.274\r\nStream size : 1.23 GiB (87%)\r\nWriting library : XviD 1.2.1 (UTC 2008-12-04)\r\n\r\nAudio\r\nID : 1\r\nFormat : AC-3\r\nFormat/Info : Audio Coding 3\r\nMode extension : CM (complete main)\r\nFormat settings, Endianness : Big\r\nCodec ID : 2000\r\nDuration : 1h 36mn\r\nBit rate mode : Constant\r\nBit rate : 256 Kbps\r\nChannel(s) : 2 channels\r\nChannel positions : Front: L R\r\nSampling rate : 48.0 KHz\r\nBit depth : 16 bits\r\nCompression mode : Lossy\r\nStream size : 177 MiB (12%)\r\nAlignment : Split accross interleaves\r\nInterleave, duration : 34 ms (1.02 video frame)\r\nInterleave, preload duration : 500 ms\r\n\r\n \nhttp://extraimago.com/image/aTxB \nhttp://extraimago.com/image/aTxC \nhttp://extraimago.com/image/aTxY \nhttp://extraimago.com/image/aTxp \nhttp://extraimago.com/image/aTxr \nhttp://extraimago.com/image/aTxG \nhttp://extraimago.com/image/aTxP\r\n\r\n\r\nPlot\r\n\r\nIn a city of anthropomorphic animals, a fugitive con artist fox and a rookie bunny cop must work together to uncover a conspiracy.\r\n\r\n\r\n\r\nCast\r\n\r\nCast overview, first billed only:\r\nGinnifer Goodwin ... Judy Hopps (voice)\r\nJason Bateman ... Nick Wilde (voice)\r\nIdris Elba ... Chief Bogo (voice)\r\nJenny Slate ... Bellwether (voice)\r\nNate Torrence ... Clawhauser (voice)\r\nBonnie Hunt ... Bonnie Hopps (voice)\r\nDon Lake ... Stu Hopps (voice)\r\nTommy Chong ... Yax (voice)\r\nJ.K. Simmons ... Mayor Lionheart (voice)\r\nOctavia Spencer ... Mrs. Otterton (voice)\r\nAlan Tudyk ... Duke Weaselton (voice)\r\nShakira ... Gazelle (voice)\r\nRaymond S. Persi ... Flash (voice)\r\nDella Saba ... Young Hopps (voice)\r\nMaurice LaMarche ... Mr. Big (voice)\r\n\r\nLOOKING FOR ANYTHING YOU WANT TO LOOK AND SOUND BETTER\r\n\r\nCOME FIND US WE DONT BITE",
  "parsed": {
    "xt": "urn:btih:609679de0f6734a8ec59bd59af3862d6aef5d8e3",
    "dn": "Zootopia.2016.HDCAM.XVID.AC3.HQ.Hive-CM8",
    "tr": [
      "udp://exodus.desync.com:6969",
      "udp://open.demonii.com:1337",
      "udp://tracker.coppersurfer.tk:6969",
      "udp://tracker.leechers-paradise.org:6969",
      "udp://zer0day.ch:1337"
    ],
    "infoHash": "609679de0f6734a8ec59bd59af3862d6aef5d8e3",
    "infoHashBuffer": {
      "type": "Buffer",
      "data": [
        96,
        150,
        121,
        222,
        15,
        103,
        52,
        168,
        236,
        89,
        189,
        89,
        175,
        56,
        98,
        214,
        174,
        245,
        216,
        227
      ]
    },
    "name": "Zootopia.2016.HDCAM.XVID.AC3.HQ.Hive-CM8",
    "announce": [
      "udp://exodus.desync.com:6969",
      "udp://open.demonii.com:1337",
      "udp://tracker.coppersurfer.tk:6969",
      "udp://tracker.leechers-paradise.org:6969",
      "udp://zer0day.ch:1337"
    ],
    "urlList": []
  },
  "previous": 93,
  "peers": 307,
  "last_updated": "2016-12-27T01:51:29.074Z"
}